<?xml version="1.0" encoding="UTF-8"?>
<svg width="22px" height="26px" viewBox="0 0 22 26" version="1.1" xmlns="http://www.w3.org/2000/svg" xmlns:xlink="http://www.w3.org/1999/xlink">
    <!-- Generator: sketchtool 58 (101010) - https://sketch.com -->
    <title>B25CA4C7-5408-448D-8276-6AF641CA4FF7</title>
    <desc>Created with sketchtool.</desc>
    <g id="NM" stroke="none" stroke-width="1" fill="none" fill-rule="evenodd">
        <g id="Cart-Copy" transform="translate(-1747.000000, -35.000000)" fill="#000000" fill-rule="nonzero" stroke="#000000" stroke-width="0.5">
            <g id="Group-4" transform="translate(0.000000, -2.000000)">
                <g id="user-copy-bag" transform="translate(1743.000000, 35.000000)">
                    <path d="M15.2389728,2.5 C18.1655065,2.5 20.546088,4.88058142 20.546088,7.80711503 L20.546088,7.80711503 L20.546088,7.9104124 L24.6112636,7.9104124 C25.0901571,7.9104124 25.4782844,8.29853959 25.4782844,8.7774331 L25.4782844,8.7774331 L25.4782844,24.0651078 C25.4782844,25.9590061 23.9376292,27.5 22.0437308,27.5 L22.0437308,27.5 L8.43455363,27.5 C6.54065524,27.5 5,25.9590061 5,24.0651078 L5,24.0651078 L5,8.7774331 C5,8.29853959 5.38812729,7.9104124 5.86702072,7.9104124 L5.86702072,7.9104124 L9.93185774,7.9104124 L9.93185774,7.80711503 C9.93185774,4.88058142 12.3127779,2.5 15.2389728,2.5 Z M9.93185761,9.64445353 L6.73370272,9.64445353 L6.73370272,24.0651071 C6.73370272,25.0029119 7.49674874,25.7659578 8.43455353,25.7659578 L8.43455353,25.7659578 L22.0433917,25.7659578 C22.9815352,25.7659578 23.7442425,25.0029119 23.7442425,24.0651071 L23.7442425,24.0651071 L23.7442425,9.64445353 L20.5460876,9.64445353 L20.5460876,13.0336238 C20.5460876,13.5125172 20.1579604,13.9006445 19.6794056,13.9006445 C19.2005121,13.9006445 18.8123849,13.5125172 18.8123849,13.0336238 L18.8123849,13.0336238 L18.8123849,9.64445353 L11.665899,9.64445353 L11.665899,13.0336238 C11.665899,13.5125172 11.2777717,13.9006445 10.7988783,13.9006445 C10.3199849,13.9006445 9.93185761,13.5125172 9.93185761,13.0336238 L9.93185761,13.0336238 L9.93185761,9.64445353 Z M19.6120087,15.9882677 C20.0909022,15.9882677 20.4790294,16.3763949 20.4790294,16.8552883 C20.4790294,17.3338432 20.0909022,17.7219704 19.6120087,17.7219704 L10.8662757,17.7219704 C10.3873822,17.7219704 9.99925494,17.3338432 9.99925494,16.8552883 C9.99925494,16.3763949 10.3873822,15.9882677 10.8662757,15.9882677 L19.6120087,15.9882677 Z M15.2389728,4.23370272 C13.2688714,4.23370272 11.6658992,5.8366749 11.6658992,7.80711489 L11.6658992,7.80711489 L11.6658992,7.91041225 L18.8123852,7.91041225 L18.8123852,7.80711489 C18.8123852,5.8366749 17.2094129,4.23370272 15.2389728,4.23370272 Z" id="Combined-Shape"></path>
                </g>
            </g>
        </g>
    </g>
</svg>