<?xml version="1.0" encoding="UTF-8"?>
<svg width="24px" height="26px" viewBox="0 0 24 26" version="1.1" xmlns="http://www.w3.org/2000/svg" xmlns:xlink="http://www.w3.org/1999/xlink">
    <!-- Generator: sketchtool 58 (101010) - https://sketch.com -->
    <title>28CD9995-E037-4183-9786-18A78B583392</title>
    <desc>Created with sketchtool.</desc>
    <defs>
        <path d="M10,17.5 L20,17.5 C23.3750735,17.5 26.1253119,20.1752368 26.245878,23.5208731 L26.25,23.75 L26.25,26.25 C26.25,26.9403559 25.6903559,27.5 25,27.5 C24.3527913,27.5 23.8204661,27.0081253 23.7564536,26.3778052 L23.75,26.25 L23.75,23.75 C23.75,21.7457408 22.1776389,20.1087263 20.1991586,20.005198 L20,20 L10,20 C7.99574083,20 6.35872626,21.5723611 6.25519801,23.5508414 L6.25,23.75 L6.25,26.25 C6.25,26.9403559 5.69035594,27.5 5,27.5 C4.35279131,27.5 3.8204661,27.0081253 3.75645361,26.3778052 L3.75,26.25 L3.75,23.75 C3.75,20.3749265 6.4252368,17.6246881 9.77087313,17.504122 L10,17.5 L20,17.5 Z M15,2.5 C18.4517797,2.5 21.25,5.29822031 21.25,8.75 C21.25,12.2017797 18.4517797,15 15,15 C11.5482203,15 8.75,12.2017797 8.75,8.75 C8.75,5.29822031 11.5482203,2.5 15,2.5 Z M15,5 C12.9289322,5 11.25,6.67893219 11.25,8.75 C11.25,10.8210678 12.9289322,12.5 15,12.5 C17.0710678,12.5 18.75,10.8210678 18.75,8.75 C18.75,6.67893219 17.0710678,5 15,5 Z" id="path-1"></path>
    </defs>
    <g id="NM" stroke="none" stroke-width="1" fill="none" fill-rule="evenodd">
        <g id="Cart-Copy" transform="translate(-1687.000000, -36.000000)">
            <g id="Group-4" transform="translate(0.000000, -2.000000)">
                <g id="user" transform="translate(1684.000000, 36.000000)">
                    <mask id="mask-2" fill="white">
                        <use xlink:href="#path-1"></use>
                    </mask>
                    <use id="Combined-Shape" fill="#000000" fill-rule="nonzero" xlink:href="#path-1"></use>
                </g>
            </g>
        </g>
    </g>
</svg>